<svg
  xmlns="http://www.w3.org/2000/svg"
  viewBox="0 0 256 256"
  role="img"
  aria-label="Placeholder QR code"
>
  <rect width="256" height="256" rx="26" fill="#ffffff" />
  <rect x="18" y="18" width="220" height="220" rx="22" fill="#ffffff" stroke="#111111" stroke-width="8" />
  <g fill="#111111">
    <rect x="34" y="34" width="56" height="56" rx="8" />
    <rect x="42" y="42" width="40" height="40" rx="6" fill="#ffffff" />
    <rect x="50" y="50" width="24" height="24" rx="4" />
    <rect x="166" y="34" width="56" height="56" rx="8" />
    <rect x="174" y="42" width="40" height="40" rx="6" fill="#ffffff" />
    <rect x="182" y="50" width="24" height="24" rx="4" />
    <rect x="34" y="166" width="56" height="56" rx="8" />
    <rect x="42" y="174" width="40" height="40" rx="6" fill="#ffffff" />
    <rect x="50" y="182" width="24" height="24" rx="4" />
    <rect x="110" y="42" width="12" height="12" rx="2" />
    <rect x="126" y="42" width="12" height="12" rx="2" />
    <rect x="110" y="58" width="12" height="12" rx="2" />
    <rect x="126" y="74" width="12" height="12" rx="2" />
    <rect x="110" y="90" width="12" height="12" rx="2" />
    <rect x="126" y="106" width="12" height="12" rx="2" />
    <rect x="142" y="90" width="12" height="12" rx="2" />
    <rect x="158" y="106" width="12" height="12" rx="2" />
    <rect x="94" y="122" width="12" height="12" rx="2" />
    <rect x="110" y="122" width="12" height="12" rx="2" />
    <rect x="142" y="122" width="12" height="12" rx="2" />
    <rect x="158" y="122" width="12" height="12" rx="2" />
    <rect x="94" y="138" width="12" height="12" rx="2" />
    <rect x="126" y="138" width="12" height="12" rx="2" />
    <rect x="158" y="138" width="12" height="12" rx="2" />
    <rect x="94" y="154" width="12" height="12" rx="2" />
    <rect x="126" y="154" width="12" height="12" rx="2" />
    <rect x="142" y="154" width="12" height="12" rx="2" />
    <rect x="174" y="154" width="12" height="12" rx="2" />
    <rect x="110" y="170" width="12" height="12" rx="2" />
    <rect x="142" y="170" width="12" height="12" rx="2" />
    <rect x="174" y="170" width="12" height="12" rx="2" />
    <rect x="94" y="186" width="12" height="12" rx="2" />
    <rect x="126" y="186" width="12" height="12" rx="2" />
    <rect x="142" y="186" width="12" height="12" rx="2" />
    <rect x="174" y="186" width="12" height="12" rx="2" />
    <rect x="110" y="202" width="12" height="12" rx="2" />
    <rect x="142" y="202" width="12" height="12" rx="2" />
  </g>
</svg>
